<svg width="21" height="22" fill="none" xmlns="http://www.w3.org/2000/svg">
  <path d="M6.7007 13.3186c-.3002.6154-.4278 1.1307-.436 1.1644a.4323.4323 0 0 0 .194.4702c.0871.0534 2.1512 1.2997 3.865.5924a5.316 5.316 0 0 0 .4009-.1854c-1.4615-.3647-2.8312-1.1309-4.0239-2.0416ZM6.739 7.7481c.0032.0027.1516.1228.3481.3163 1.5967-1.1373 3.4714-1.9849 5.4324-1.9849.4327 0 .8689.026 1.307.0773-.2244-.4034-.5978-.8244-1.1983-1.2246-1.1781-.7854-2.6985-.1879-3.8932.5644-1.1283.7104-1.995 1.5723-2.0314 1.6086a.4327.4327 0 0 0 .0353.643ZM5.5128 12.3129c-.1822-.171-.4438-.4273-.6109-.6141a1.2956 1.2956 0 0 1 .0005-1.73c.1143-.1276.343-.3628.6103-.6136-.469-.355-1.0448-.9016-1.5873-1.7154-.1511-.2265-.4722-.259-.6653-.0659-.645.645-.9998 1.4224-.9735 2.1329a30.5717 30.5717 0 0 1 0 2.2545c-.0263.7105.3285 1.4879.9735 2.1328.1928.1928.514.161.6652-.0659.5426-.8137 1.1185-1.3603 1.5875-1.7153Z" fill="#78C0DE"/>
  <path d="M15.3494 14.0807c-1.3082-1.5047-1.3109-4.9778-.0036-6.4894.0151-.0175.0057-.0073.2036-.2052-1.0167-.2933-2.0346-.4422-3.0298-.442-2.2132-.0001-4.3772 1.251-6.0286 2.6916-.4139.3612-.7735.7188-.945.9101a.4322.4322 0 0 0 0 .5765c.368.4114 1.1309 1.1168 1.9516 1.7122 1.255.9093 2.7043 1.6427 4.2351 1.8382.0069-.0062.276.0449.8158.0511.982-.0028 1.9953-.1491 2.9825-.4334l-.1816-.2097Z" fill="#78C0DE"/>
  <path d="M19.8426 11.81c.2041-.2573.388-.589.412-.9196.0538-.7264-.754-1.4702-1.3408-1.9029-.729-.5376-1.6059-.9792-2.4467-1.2965l-.477.477c-1.0161 1.195-1.0085 4.1721.0121 5.3461l.4188.4832c1.164-.4336 2.6582-1.2121 3.4216-2.1873Zm-3.1402-1.3395c-.0689-.219.0524-.4672.2877-.5387.2229-.074.4942.0626.5493.3289a.433.433 0 0 1-.0644.3244c-.2114.3087-.6699.2259-.7726-.1146Z" fill="#78C0DE"/>
</svg>
